<?xml version="1.0" standalone="no"?>
<!DOCTYPE svg PUBLIC "-//W3C//DTD SVG 20010904//EN"
 "http://www.w3.org/TR/2001/REC-SVG-20010904/DTD/svg10.dtd">
<svg version="1.0" xmlns="http://www.w3.org/2000/svg"
 width="38.000000pt" height="46.000000pt" viewBox="0 0 38.000000 46.000000"
 preserveAspectRatio="xMidYMid meet">

<g transform="translate(0.000000,46.000000) scale(0.100000,-0.100000)"
fill="#000000" stroke="none">
<path d="M158 443 c6 -2 18 -2 25 0 6 3 1 5 -13 5 -14 0 -19 -2 -12 -5z"/>
<path d="M191 407 c2 -1 13 -9 24 -17 19 -14 19 -14 6 3 -7 9 -18 17 -24 17
-6 0 -8 -1 -6 -3z"/>
<path d="M48 362 c-15 -13 -33 -41 -39 -62 -11 -36 -9 -44 25 -113 20 -40 36
-85 36 -98 0 -30 17 -49 43 -49 36 0 132 56 184 108 70 69 72 102 11 133 -24
12 -61 41 -83 65 -39 42 -43 43 -95 41 -40 -1 -61 -8 -82 -25z m122 -72 c-7
-26 -6 -30 11 -30 26 0 24 -6 -13 -62 -39 -57 -51 -60 -42 -13 5 28 3 35 -10
35 -22 0 -21 5 14 56 36 51 52 57 40 14z"/>
<path d="M172 41 c-33 -17 -34 -31 -2 -31 20 0 44 24 38 39 -1 5 -18 2 -36 -8z"/>
</g>
</svg>
